<svg width="90" height="150" viewBox="0 0 90 150" fill="none" xmlns="http://www.w3.org/2000/svg">
<g clip-path="url(#clip0_74_2)">
<path d="M67.128 5.13V116.73L78.2 121.47L89.272 116.73V5.13H67.128Z" fill="#9484CB"/>
<path d="M78.034 5.125V121.435L78.194 121.495L89.266 116.755V5.125H78.034Z" fill="#6C6096"/>
<path d="M78.2 0.299988L67.128 5.48999L78.2 10.68L89.272 5.48999L78.2 0.299988Z" fill="#5E49A6"/>
<path d="M55.998 24.435V121.395L67.07 126.165L78.142 121.395V24.435H55.998Z" fill="#457F81"/>
<path d="M66.938 24.435H55.962V121.395L66.938 126.105V24.435Z" fill="#65B9BC"/>
<path d="M67.07 19.56L55.998 24.75L67.07 29.94L78.142 24.75L67.07 19.56Z" fill="#345F61"/>
<path d="M44.858 41.64V126.06L55.93 130.8L67.002 126.06V41.64H44.858Z" fill="#2EADAB"/>
<path d="M55.808 41.645H44.832V126.065L55.808 130.775V41.645Z" fill="#3EE0DD"/>
<path d="M55.93 36.73L44.858 41.92L55.93 47.11L67.002 41.92L55.93 36.73Z" fill="#278886"/>
<path d="M33.728 59.6V130.73L44.8 135.5L55.872 130.73V59.6H33.728Z" fill="#6C6096"/>
<path d="M44.766 59.6H33.694V130.85L44.766 135.38V59.6Z" fill="#9484CB"/>
<path d="M44.8 54.65L33.728 59.84L44.8 65.03L55.872 59.84L44.8 54.65Z" fill="#5E49A6"/>
<path d="M22.598 76.905V135.435L33.67 140.175L44.742 135.435V76.905H22.598Z" fill="#A6A63E"/>
<path d="M33.538 76.905H22.562V135.435L33.538 140.115V76.905Z" fill="#D6D653"/>
<path d="M33.67 71.91L22.598 77.1L33.67 82.29L44.742 77.1L33.67 71.91Z" fill="#8D8D35"/>
<path d="M11.528 97.135V140.065L22.6 144.805L33.672 140.065V97.135H11.528Z" fill="#3EE0DD"/>
<path d="M22.57 97.135V144.745L22.698 144.805L33.77 140.065V97.135H22.57Z" fill="#2EADAB"/>
<path d="M22.6 91.69L11.528 96.88L22.6 102.07L33.672 96.88L22.6 91.69Z" fill="#278886"/>
<path d="M0.397987 116.38V144.67L11.47 149.44L22.542 144.67V116.38H0.397987Z" fill="#457F81"/>
<path d="M11.47 111.35L0.397993 116.54L11.47 121.73L22.542 116.54L11.47 111.35Z" fill="#345F61"/>
</g>
<defs>
<clipPath id="clip0_74_2">
<rect width="90" height="150" fill="white"/>
</clipPath>
</defs>
</svg>
