<svg width="32" height="24" viewBox="0 0 32 24" fill="none" xmlns="http://www.w3.org/2000/svg">
<path d="M27.3253 4.03221C27.2992 3.95353 27.2718 3.82823 27.2393 3.68694C27.0242 2.79238 26.8222 1.94719 26.0233 1.63524L22.2309 0.159454C21.4959 -0.125817 20.6723 -0.0232068 20.0233 0.439414L19.7887 0.65407C19.5984 0.876725 19.3403 1.15531 19.1566 1.33397H12.1687C12.0136 1.16731 11.8064 0.922031 11.6331 0.702063L11.3621 0.442101C10.7131 -0.021832 9.88683 -0.128504 9.15571 0.159454L5.35934 1.63524C4.56439 1.94451 4.365 2.78039 4.15253 3.66695C4.11997 3.80161 4.0926 3.92422 4.10299 3.92422C4.10299 3.92422 4.10427 3.92422 4.10561 3.92291C2.81285 6.53053 -3.33581 19.7312 2.42054 23.6281C3.2442 24.1853 4.3402 24.0973 5.08957 23.4121L9.60136 19.274C9.99886 18.9087 10.5045 18.7074 11.0232 18.7074H20.3608C20.8795 18.7074 21.3839 18.9087 21.7827 19.274L26.2945 23.4121C26.7193 23.8013 27.2484 24 27.7775 24C28.2024 24 28.6259 23.8707 28.9921 23.6067C34.0721 19.9606 29.4952 8.64485 27.3253 4.03221ZM20.86 5.33333C21.5794 5.33333 22.1632 5.93056 22.1632 6.66645C22.1632 7.40234 21.5794 7.99957 20.86 7.99957C20.1406 7.99957 19.5568 7.40234 19.5568 6.66645C19.5568 5.93056 20.1406 5.33333 20.86 5.33333ZM13.0406 11.9991H11.7374V13.3322C11.7374 14.0681 11.1549 14.6653 10.4342 14.6653C9.71352 14.6653 9.13097 14.0681 9.13097 13.3322V11.9991H7.82776C7.1071 11.9991 6.52455 11.4018 6.52455 10.6659C6.52455 9.93004 7.1071 9.33281 7.82776 9.33281H9.13097V7.99969C9.13097 7.2638 9.71352 6.66657 10.4342 6.66657C11.1549 6.66657 11.7374 7.2638 11.7374 7.99969V9.33281H13.0406C13.7613 9.33281 14.3438 9.93004 14.3438 10.6659C14.3438 11.4018 13.7613 11.9991 13.0406 11.9991ZM18.2535 10.6659C17.5341 10.6659 16.9503 10.0687 16.9503 9.33281C16.9503 8.59692 17.5341 7.99969 18.2535 7.99969C18.9729 7.99969 19.5567 8.59692 19.5567 9.33281C19.5567 10.0687 18.9729 10.6659 18.2535 10.6659ZM20.86 13.3322C20.1406 13.3322 19.5568 12.7349 19.5568 11.9991C19.5568 11.2632 20.1406 10.6659 20.86 10.6659C21.5794 10.6659 22.1632 11.2632 22.1632 11.9991C22.1632 12.7349 21.5794 13.3322 20.86 13.3322ZM23.4664 10.6659C22.747 10.6659 22.1632 10.0687 22.1632 9.33281C22.1632 8.59692 22.747 7.99969 23.4664 7.99969C24.1858 7.99969 24.7696 8.59692 24.7696 9.33281C24.7696 10.0687 24.1858 10.6659 23.4664 10.6659Z" fill="#959BA5"/>
</svg>
