<svg width="24" height="24" viewBox="0 0 24 24" fill="none" xmlns="http://www.w3.org/2000/svg">
<path fill-rule="evenodd" clip-rule="evenodd" d="M4.33327 8.28417C4 9.00879 4 9.83314 4 11.4818V16.6309C4 18.9206 4 20.0654 4.71131 20.7767C5.38072 21.4461 6.43408 21.4856 8.46425 21.4879V15.4167C8.46425 14.1938 9.45562 13.2024 10.6785 13.2024H14.3214C15.5443 13.2024 16.5357 14.1938 16.5357 15.4167V21.4879C18.5659 21.4856 19.6193 21.4461 20.2887 20.7767C21 20.0654 21 18.9206 21 16.6309V11.4818C21 9.83314 21 9.00879 20.6667 8.28417C20.3335 7.55956 19.7076 7.02308 18.4558 5.95012L17.2415 4.9093C14.9789 2.96993 13.8476 2.00024 12.5 2.00024C11.1524 2.00024 10.0211 2.96993 7.75852 4.9093L6.54423 5.95012C5.29244 7.02308 4.66655 7.55956 4.33327 8.28417ZM14.5357 21.488V15.4167C14.5357 15.2983 14.4397 15.2024 14.3214 15.2024H10.6785C10.5602 15.2024 10.4642 15.2983 10.4642 15.4167V21.488H14.5357Z" fill="#242730"/>
</svg>
