<?xml version="1.0" encoding="iso-8859-1"?>
<!-- Generator: Adobe Illustrator 19.0.0, SVG Export Plug-In . SVG Version: 6.00 Build 0)  -->
<svg version="1.1" id="Layer_1" xmlns="http://www.w3.org/2000/svg" xmlns:xlink="http://www.w3.org/1999/xlink" x="0px" y="0px"
	 viewBox="0 0 508.1 508.1" style="enable-background:new 0 0 508.1 508.1;" xml:space="preserve">
<path style="fill:#40596B;" d="M486.8,215.8H21.2C9.5,215.8,0,225.3,0,237v249.9c0,11.7,9.5,21.2,21.2,21.2h465.7
	c11.7,0,21.2-9.5,21.2-21.2v-250C508,225.2,498.5,215.8,486.8,215.8z"/>
<path style="fill:#F2F2F2;" d="M254,0C160.4,0,84.2,76.2,84.2,169.9v45.9h56.4v-45.9c0-62.5,50.9-113.4,113.4-113.4
	s113.4,50.9,113.4,113.4v45.9h56.4v-45.9C423.8,76.2,347.7,0,254,0z"/>
<g>
	<path style="fill:#4CDBC4;" d="M458.6,270.1c-4.1,0-7.7,1.6-10.3,4.3c-2.6,2.7-4.2,6.3-4.2,10.3c0,8.1,6.5,14.6,14.6,14.6H508
		v-29.1h-49.4V270.1z"/>
	<path style="fill:#4CDBC4;" d="M448.3,351.6c-2.6,2.7-4.2,6.3-4.2,10.3c0,8.1,6.5,14.6,14.6,14.6H508v-29.1h-49.4
		C454.5,347.3,450.9,348.9,448.3,351.6z"/>
	<path style="fill:#4CDBC4;" d="M448.3,428.8c-2.6,2.7-4.2,6.3-4.2,10.3c0,8.1,6.5,14.6,14.6,14.6H508v-29.1h-49.4
		C454.5,424.5,450.9,426.1,448.3,428.8z"/>
</g>
<path style="fill:#334A5E;" d="M302.7,335.2c0-26.9-21.8-48.7-48.7-48.7s-48.7,21.8-48.7,48.7c0,16.6,8.3,31.2,21,40l-16.9,62h89.3
	l-16.9-62C294.4,366.4,302.7,351.8,302.7,335.2z"/>
<g>
</g>
<g>
</g>
<g>
</g>
<g>
</g>
<g>
</g>
<g>
</g>
<g>
</g>
<g>
</g>
<g>
</g>
<g>
</g>
<g>
</g>
<g>
</g>
<g>
</g>
<g>
</g>
<g>
</g>
</svg>
