<svg width="20" height="16" viewBox="0 0 20 16" fill="none" xmlns="http://www.w3.org/2000/svg">
<path d="M16.432 4.18659C16.432 3.84649 16.7071 3.57149 17.0473 3.57149C17.3875 3.57149 17.6626 3.84649 17.6626 4.18659V12.0787C17.6626 12.4188 17.3875 12.6938 17.0473 12.6938C16.7071 12.6938 16.432 12.4188 16.432 12.0787V4.18659ZM0 5.56975C0 5.22965 0.275087 4.95465 0.615284 4.95465C0.955481 4.95465 1.23057 5.22965 1.23057 5.56975V10.6939C1.23057 11.034 0.955481 11.309 0.615284 11.309C0.275087 11.309 0 11.034 0 10.6939V5.56975ZM2.3472 4.18659C2.3472 3.84649 2.62228 3.57149 2.96248 3.57149C3.30268 3.57149 3.57776 3.84649 3.57776 4.18659V12.0787C3.57776 12.4188 3.30268 12.6938 2.96248 12.6938C2.62228 12.6938 2.3472 12.4188 2.3472 12.0787V4.18659ZM4.70416 2.65372C4.70416 2.31525 4.97599 2.04187 5.30968 2.04187C5.64499 2.04187 5.91519 2.31525 5.91519 2.65372V13.6116C5.91519 13.9501 5.64336 14.2234 5.30968 14.2234C4.97436 14.2234 4.70416 13.9501 4.70416 13.6116V2.65372ZM7.04159 1.00695C7.04159 0.66685 7.31668 0.391846 7.65687 0.391846C7.99707 0.391846 8.27216 0.66685 8.27216 1.00695V15.2567C8.27216 15.5968 7.99707 15.8718 7.65687 15.8718C7.31668 15.8718 7.04159 15.5968 7.04159 15.2567V1.00695ZM14.0848 5.56975C14.0848 5.22965 14.3599 4.95465 14.7001 4.95465C15.0403 4.95465 15.3154 5.22965 15.3154 5.56975V10.6939C15.3154 11.034 15.0403 11.309 14.7001 11.309C14.3599 11.309 14.0848 11.034 14.0848 10.6939V5.56975ZM11.7376 4.18659C11.7376 3.84649 12.0127 3.57149 12.3529 3.57149C12.6931 3.57149 12.9682 3.84649 12.9682 4.18659V12.0787C12.9682 12.4188 12.6931 12.6938 12.3529 12.6938C12.0127 12.6938 11.7376 12.4188 11.7376 12.0787V4.18659ZM9.39855 2.65372C9.39855 2.31525 9.67038 2.04187 10.0041 2.04187C10.3394 2.04187 10.6096 2.31525 10.6096 2.65372V13.6116C10.6096 13.9501 10.3378 14.2234 10.0041 14.2234C9.66875 14.2234 9.39855 13.9501 9.39855 13.6116V2.65372ZM18.789 2.65372C18.789 2.31525 19.0608 2.04187 19.3945 2.04187C19.7298 2.04187 20 2.31525 20 2.65372V13.6116C20 13.9501 19.7282 14.2234 19.3945 14.2234C19.0592 14.2234 18.789 13.9501 18.789 13.6116V2.65372Z" fill="#959BA5"/>
</svg>
