<svg xmlns="http://www.w3.org/2000/svg">

  <symbol viewBox="0 0 57 50" fill="none" id="logo">
    <path d="M52.9306 29.575C53.6552 28.1057 54.0702 26.4353 54.0702 24.6591C54.0702 20.1448 51.4151 16.3021 47.6855 14.7878C47.6855 14.783 47.6862 14.7782 47.6862 14.7728C47.6862 6.86504 41.6839 0.45459 34.2798 0.45459C28.0337 0.45459 22.8007 5.02345 21.3119 11.198C20.3697 10.8673 19.3655 10.6819 18.3198 10.6819C13.4092 10.6819 9.36749 14.6316 8.81399 19.7173C5.49176 20.468 2.99817 23.6153 2.99817 27.3864C2.99817 31.7166 6.28529 35.2273 10.3398 35.2273C10.4528 35.2273 10.5645 35.2191 10.6756 35.2123C10.673 35.3316 10.659 35.4482 10.659 35.5682C10.659 43.2878 16.5182 49.5455 23.7462 49.5455C27.8555 49.5455 31.5187 47.5191 33.9184 44.3541C35.3089 45.8712 37.2419 46.8182 39.387 46.8182C42.3555 46.8182 44.9244 45.0114 46.1961 42.3741C46.8677 42.6025 47.5821 42.7273 48.3246 42.7273C52.2028 42.7273 55.347 39.3694 55.347 35.2273C55.347 32.9698 54.4085 30.9503 52.9306 29.575Z" fill="#C7EDE6"/>
    <path d="M7.14778 25.6818H0.76378C0.587582 25.6818 0.44458 25.5291 0.44458 25.3409C0.44458 25.1527 0.587582 25 0.76378 25H7.14778C7.32398 25 7.46698 25.1527 7.46698 25.3409C7.46698 25.5291 7.32462 25.6818 7.14778 25.6818Z" fill="white"/>
    <path d="M9.06301 25.6818H8.42461C8.24841 25.6818 8.10541 25.5291 8.10541 25.3409C8.10541 25.1527 8.24841 25 8.42461 25H9.06301C9.23921 25 9.38221 25.1527 9.38221 25.3409C9.38221 25.5291 9.23984 25.6818 9.06301 25.6818Z" fill="white"/>
    <path d="M12.2492 27.0455H6.50939C6.33319 27.0455 6.19019 26.8927 6.19019 26.7046C6.19019 26.5164 6.33319 26.3636 6.50939 26.3636H12.2492C12.4254 26.3636 12.5684 26.5164 12.5684 26.7046C12.5684 26.8927 12.4254 27.0455 12.2492 27.0455Z" fill="white"/>
    <path d="M5.23256 27.0455H4.59416C4.41796 27.0455 4.27496 26.8927 4.27496 26.7046C4.27496 26.5164 4.41796 26.3636 4.59416 26.3636H5.23256C5.40876 26.3636 5.55176 26.5164 5.55176 26.7046C5.55176 26.8927 5.4094 27.0455 5.23256 27.0455Z" fill="white"/>
    <path d="M3.31737 27.0455H2.04057C1.86438 27.0455 1.72137 26.8927 1.72137 26.7046C1.72137 26.5164 1.86438 26.3636 2.04057 26.3636H3.31737C3.49357 26.3636 3.63657 26.5164 3.63657 26.7046C3.63657 26.8927 3.49421 27.0455 3.31737 27.0455Z" fill="white"/>
    <path d="M7.14776 28.4091H5.87096C5.69476 28.4091 5.55176 28.2564 5.55176 28.0682C5.55176 27.88 5.69476 27.7273 5.87096 27.7273H7.14776C7.32396 27.7273 7.46696 27.88 7.46696 28.0682C7.46696 28.2564 7.32396 28.4091 7.14776 28.4091Z" fill="white"/>
    <path d="M9.06301 22.2728C8.95001 22.2728 8.5376 22.2728 8.42461 22.2728C8.24841 22.2728 8.10541 22.4256 8.10541 22.6137C8.10541 22.8019 8.24841 22.9546 8.42461 22.9546C8.5376 22.9546 8.95001 22.9546 9.06301 22.9546C9.23921 22.9546 9.38221 22.8019 9.38221 22.6137C9.38221 22.4256 9.23921 22.2728 9.06301 22.2728Z" fill="white"/>
    <path d="M9.06296 23.6364C8.94996 23.6364 5.98395 23.6364 5.87096 23.6364C5.69476 23.6364 5.55176 23.7891 5.55176 23.9773C5.55176 24.1654 5.69476 24.3182 5.87096 24.3182C5.98395 24.3182 8.94996 24.3182 9.06296 24.3182C9.23916 24.3182 9.38216 24.1654 9.38216 23.9773C9.38216 23.7891 9.23916 23.6364 9.06296 23.6364Z" fill="white"/>
    <path d="M12.255 25C12.142 25 10.4528 25 10.3398 25C10.1636 25 10.0206 25.1527 10.0206 25.3409C10.0206 25.5291 10.1636 25.6818 10.3398 25.6818C10.4528 25.6818 12.142 25.6818 12.255 25.6818C12.4312 25.6818 12.5742 25.5291 12.5742 25.3409C12.5742 25.1527 12.4312 25 12.255 25Z" fill="white"/>
    <path d="M43.5366 7.27276H37.1526C36.9764 7.27276 36.8334 7.12003 36.8334 6.93185C36.8334 6.74367 36.9764 6.59094 37.1526 6.59094H43.5366C43.7128 6.59094 43.8558 6.74367 43.8558 6.93185C43.8558 7.12003 43.7128 7.27276 43.5366 7.27276Z" fill="white"/>
    <path d="M46.0902 7.27276H44.8134C44.6372 7.27276 44.4942 7.12003 44.4942 6.93185C44.4942 6.74367 44.6372 6.59094 44.8134 6.59094H46.0902C46.2664 6.59094 46.4094 6.74367 46.4094 6.93185C46.4094 7.12003 46.2664 7.27276 46.0902 7.27276Z" fill="white"/>
    <path d="M49.2822 8.63641H42.8982C42.722 8.63641 42.579 8.48368 42.579 8.2955C42.579 8.10732 42.722 7.95459 42.8982 7.95459H49.2822C49.4584 7.95459 49.6014 8.10732 49.6014 8.2955C49.6014 8.48368 49.459 8.63641 49.2822 8.63641Z" fill="white"/>
    <path d="M41.6214 8.63641H40.983C40.8068 8.63641 40.6638 8.48368 40.6638 8.2955C40.6638 8.10732 40.8068 7.95459 40.983 7.95459H41.6214C41.7976 7.95459 41.9406 8.10732 41.9406 8.2955C41.9406 8.48368 41.7976 8.63641 41.6214 8.63641Z" fill="white"/>
    <path d="M39.687 8.63641H38.4294C38.2532 8.63641 38.1102 8.48368 38.1102 8.2955C38.1102 8.10732 38.2532 7.95459 38.4294 7.95459H39.687C39.8632 7.95459 40.0062 8.10732 40.0062 8.2955C40.0062 8.48368 39.8632 8.63641 39.687 8.63641Z" fill="white"/>
    <path d="M45.4518 5.90911H42.2598C42.0836 5.90911 41.9406 5.75639 41.9406 5.5682C41.9406 5.38002 42.0836 5.22729 42.2598 5.22729H45.4518C45.6279 5.22729 45.771 5.38002 45.771 5.5682C45.771 5.75639 45.6286 5.90911 45.4518 5.90911Z" fill="white"/>
    <path d="M43.5366 10.0001H42.2598C42.0836 10.0001 41.9406 9.84733 41.9406 9.65915C41.9406 9.47096 42.0836 9.31824 42.2598 9.31824H43.5366C43.7128 9.31824 43.8558 9.47096 43.8558 9.65915C43.8558 9.84733 43.7128 10.0001 43.5366 10.0001Z" fill="white"/>
    <path d="M51.8358 27.3865C51.8358 27.3865 52.8362 27.3865 54.0702 27.3865C55.3042 27.3865 56.3046 26.3181 56.3046 25.0001C56.3046 23.7858 55.4523 22.7951 54.3543 22.6444C54.3722 22.5224 54.3894 22.4003 54.3894 22.2728C54.3894 20.9549 53.389 19.8865 52.155 19.8865C51.4962 19.8865 50.9101 20.1967 50.5016 20.6808C50.2564 19.4481 49.233 18.5228 48.0054 18.5228C46.5952 18.5228 45.4518 19.744 45.4518 21.2501C45.4518 21.3803 45.471 21.5051 45.4876 21.6306C45.2143 21.396 44.8721 21.2501 44.4942 21.2501C43.7102 21.2501 43.061 21.8549 42.9269 22.6512C42.8127 22.6321 42.6984 22.6137 42.579 22.6137C41.345 22.6137 40.3446 23.6821 40.3446 25.0001C40.3446 26.3181 41.345 27.3865 42.579 27.3865C43.813 27.3865 47.367 27.3865 47.367 27.3865V27.7274H51.8358V27.3865Z" fill="#FDFCEF"/>
    <path d="M52.953 24.3182C52.8649 24.3182 52.7934 24.2419 52.7934 24.1478C52.7934 23.3139 53.4286 22.6355 54.2094 22.6355C54.2311 22.6416 54.6799 22.6348 55.0035 22.7282C55.0884 22.7528 55.1389 22.8462 55.1159 22.9369C55.0929 23.0282 55.0055 23.0821 54.9205 23.0569C54.6371 22.975 54.2183 22.975 54.21 22.9764C53.6048 22.9764 53.1126 23.5021 53.1126 24.1478C53.1126 24.2419 53.0411 24.3182 52.953 24.3182Z" fill="#472B29"/>
    <path d="M48.3246 27.3864C48.3246 27.1982 48.4675 27.0455 48.6438 27.0455C48.8201 27.0455 48.963 27.1982 48.963 27.3864C48.963 27.5747 48.8201 27.7274 48.6438 27.7274C48.4675 27.7274 48.3246 27.5747 48.3246 27.3864Z" fill="#472B29"/>
    <path d="M54.0702 27.7273H51.8358C51.6596 27.7273 51.5166 27.5746 51.5166 27.3864C51.5166 27.1982 51.6596 27.0455 51.8358 27.0455H54.0702C55.1261 27.0455 55.9854 26.1278 55.9854 25.0001C55.9854 23.9801 55.2672 23.1128 54.3141 22.9826C54.2285 22.9703 54.1513 22.9226 54.0996 22.8489C54.0478 22.7753 54.0261 22.6826 54.0396 22.5919C54.0542 22.4869 54.0702 22.3819 54.0702 22.2728C54.0702 21.1451 53.2109 20.2273 52.155 20.2273C51.6124 20.2273 51.1093 20.4694 50.7384 20.9092C50.6586 21.0039 50.5335 21.0442 50.4192 21.0101C50.303 20.9767 50.2143 20.8771 50.1894 20.7517C49.9717 19.658 49.053 18.8637 48.0054 18.8637C46.7733 18.8637 45.771 19.9342 45.771 21.2501C45.771 21.3476 45.7844 21.441 45.7972 21.5351C45.8157 21.6735 45.7569 21.8337 45.6427 21.9032C45.5284 21.9728 45.3899 21.9837 45.2877 21.8964C45.0547 21.6967 44.7808 21.591 44.4942 21.591C43.8775 21.591 43.3502 22.0621 43.241 22.7119C43.2104 22.8939 43.052 23.016 42.8778 22.988C42.7795 22.9717 42.6811 22.9546 42.579 22.9546C41.5231 22.9546 40.6638 23.8723 40.6638 25.0001C40.6638 26.1278 41.5231 27.0455 42.579 27.0455H47.367C47.5432 27.0455 47.6862 27.1982 47.6862 27.3864C47.6862 27.5746 47.5432 27.7273 47.367 27.7273H42.579C41.1707 27.7273 40.0254 26.5042 40.0254 25.0001C40.0254 23.496 41.1707 22.2728 42.579 22.2728C42.6167 22.2728 42.653 22.2742 42.6901 22.2769C42.9544 21.4682 43.6713 20.9092 44.4942 20.9092C44.717 20.9092 44.934 20.9507 45.1396 21.0319C45.245 19.4412 46.4898 18.1819 48.0054 18.1819C49.1743 18.1819 50.2181 18.9503 50.6567 20.0732C51.0908 19.7337 51.6155 19.5455 52.155 19.5455C53.5633 19.5455 54.7086 20.7687 54.7086 22.2728C54.7086 22.3055 54.708 22.3376 54.706 22.3696C55.8188 22.6751 56.6238 23.7517 56.6238 25.0001C56.6238 26.5042 55.4785 27.7273 54.0702 27.7273Z" fill="#472B29"/>
    <path d="M50.559 27.0455C50.4575 27.0455 50.0221 27.0455 49.9206 27.0455C49.7444 27.0455 49.6014 27.1983 49.6014 27.3864C49.6014 27.5746 49.7444 27.7274 49.9206 27.7274C50.0221 27.7274 50.4575 27.7274 50.559 27.7274C50.7352 27.7274 50.8782 27.5746 50.8782 27.3864C50.8782 27.1983 50.7352 27.0455 50.559 27.0455Z" fill="#472B29"/>
    <path d="M37.9206 40.0001H19.7862C16.861 40.0001 14.4894 37.4671 14.4894 34.343V14.9753C14.4894 11.8512 16.861 9.31824 19.7862 9.31824H37.9212C40.8457 9.31824 43.2174 11.8512 43.2174 14.9753V34.3437C43.2174 37.4671 40.8457 40.0001 37.9206 40.0001Z" fill="#242424"/>
    <path d="M18.9582 24.6591C18.9582 18.8225 23.3884 14.0909 28.8534 14.0909C34.3184 14.0909 38.7486 18.8225 38.7486 24.6591C38.7486 30.4958 34.3184 35.2273 28.8534 35.2273C23.3884 35.2273 18.9582 30.4958 18.9582 24.6591Z" fill="#242424"/>
    <path d="M40.0254 27.5296V32.0159C40.0254 32.6568 39.5338 33.1818 38.9337 33.1818H38.1102V34.7841C38.1102 35.0159 37.9889 35.2 37.791 35.2886C37.5931 35.3773 37.3824 35.3364 37.2356 35.1727L35.3715 33.1818H31.5411C30.941 33.1818 30.4494 32.6568 30.4494 32.0159V27.5296C30.4494 26.8886 30.941 26.3636 31.5411 26.3636H38.9337C39.5338 26.3636 40.0254 26.8886 40.0254 27.5296Z" fill="#32AEC7"/>
    <path d="M27.2574 17.3023V21.7886C27.2574 22.4295 26.7658 22.9545 26.1657 22.9545H23.976C23.976 22.9614 23.976 22.9614 23.976 22.9682L23.8164 22.9545H22.3353L20.9053 24.4886L20.5861 24.8295L20.4712 24.9454C20.3244 25.1091 20.1137 25.15 19.9158 25.0614C19.7179 24.9727 19.5966 24.7886 19.5966 24.5568V22.9545H18.7731C18.173 22.9545 17.6814 22.4295 17.6814 21.7886V17.3023C17.6814 16.6614 18.173 16.1364 18.7731 16.1364H26.1657C26.7658 16.1364 27.2574 16.6614 27.2574 17.3023Z" fill="#FDFCEF"/>
    <path d="M23.8164 22.9546L23.976 22.9674C23.976 22.961 23.976 22.961 23.976 22.9546H23.8164ZM23.8164 22.9546L23.976 22.9674C23.976 22.961 23.976 22.961 23.976 22.9546H23.8164Z" fill="#FDFCEF"/>
    <path d="M37.1526 29.091H33.9606C33.7844 29.091 33.6414 28.9383 33.6414 28.7501C33.6414 28.5619 33.7844 28.4092 33.9606 28.4092H37.1526C37.3288 28.4092 37.4718 28.5619 37.4718 28.7501C37.4718 28.9383 37.3288 29.091 37.1526 29.091Z" fill="#FDFCEF"/>
    <path d="M35.4838 28.2449C35.4283 28.2449 35.3721 28.2299 35.321 28.1971L34.862 27.9067C34.7107 27.8105 34.6603 27.6019 34.7497 27.4396C34.839 27.2774 35.0357 27.2242 35.1876 27.3203L35.6466 27.6108C35.7979 27.7069 35.8483 27.9155 35.759 28.0778C35.699 28.1849 35.593 28.2449 35.4838 28.2449Z" fill="#FDFCEF"/>
    <path d="M33.9606 31.9321C33.8265 31.9321 33.702 31.8415 33.6573 31.6983C33.6018 31.5196 33.6924 31.3267 33.8597 31.2674C34.2121 31.1426 34.5422 30.9667 34.8416 30.7431C35.6881 30.1124 36.1126 29.2485 36.3195 28.6342C36.3795 28.4569 36.564 28.3649 36.728 28.429C36.8947 28.4924 36.9808 28.6881 36.9208 28.8653C36.6821 29.5724 36.1911 30.5692 35.2067 31.3021C34.8562 31.5626 34.4713 31.7685 34.0602 31.9137C34.0276 31.926 33.9938 31.9321 33.9606 31.9321Z" fill="#FDFCEF"/>
    <path d="M37.1526 31.9321C37.1162 31.9321 37.0804 31.926 37.044 31.9117C36.382 31.6567 35.4487 31.1324 34.763 30.0817C34.5192 29.7087 34.3264 29.2969 34.1897 28.8585C34.1342 28.6799 34.2249 28.4869 34.3915 28.4269C34.5587 28.369 34.7394 28.4637 34.7956 28.6424C34.913 29.0194 35.0778 29.3719 35.2872 29.6917C35.877 30.5958 36.6859 31.0492 37.2617 31.2708C37.4277 31.3342 37.5139 31.5299 37.4539 31.7071C37.4054 31.8455 37.2834 31.9321 37.1526 31.9321Z" fill="#FDFCEF"/>
    <path d="M29.1726 34.5387C29.1215 34.5455 29.0641 34.5455 29.013 34.5387C28.9619 34.5455 28.9045 34.5455 28.8534 34.5455C28.8023 34.5455 28.7449 34.5455 28.6938 34.5387V34.7091C28.7449 34.7159 28.8023 34.7159 28.8534 34.7159C28.9045 34.7159 28.9619 34.7159 29.013 34.7091C29.3194 34.6887 29.6195 34.6137 29.9131 34.4841C29.6706 34.5114 29.4216 34.5319 29.1726 34.5387ZM29.1726 34.5387C29.1215 34.5455 29.0641 34.5455 29.013 34.5387C28.9619 34.5455 28.9045 34.5455 28.8534 34.5455C28.8023 34.5455 28.7449 34.5455 28.6938 34.5387V34.7091C28.7449 34.7159 28.8023 34.7159 28.8534 34.7159C28.9045 34.7159 28.9619 34.7159 29.013 34.7091C29.3194 34.6887 29.6195 34.6137 29.9131 34.4841C29.6706 34.5114 29.4216 34.5319 29.1726 34.5387ZM29.1726 34.5387C29.1215 34.5455 29.0641 34.5455 29.013 34.5387C28.9619 34.5455 28.9045 34.5455 28.8534 34.5455C28.8023 34.5455 28.7449 34.5455 28.6938 34.5387V34.7091C28.7449 34.7159 28.8023 34.7159 28.8534 34.7159C28.9045 34.7159 28.9619 34.7159 29.013 34.7091C29.3194 34.6887 29.6195 34.6137 29.9131 34.4841C29.6706 34.5114 29.4216 34.5319 29.1726 34.5387ZM29.1726 34.5387C29.1215 34.5455 29.0641 34.5455 29.013 34.5387C28.9619 34.5455 28.9045 34.5455 28.8534 34.5455C28.8023 34.5455 28.7449 34.5455 28.6938 34.5387V34.7091C28.7449 34.7159 28.8023 34.7159 28.8534 34.7159C28.9045 34.7159 28.9619 34.7159 29.013 34.7091C29.3194 34.6887 29.6195 34.6137 29.9131 34.4841C29.6706 34.5114 29.4216 34.5319 29.1726 34.5387ZM19.5966 24.4V24.4887H19.603C19.5966 24.4614 19.5966 24.4341 19.5966 24.4ZM19.5966 24.3182V24.4C19.5966 24.3728 19.5966 24.3455 19.603 24.3182H19.5966ZM29.1726 34.5387C29.1215 34.5455 29.0641 34.5455 29.013 34.5387C28.9619 34.5455 28.9045 34.5455 28.8534 34.5455C28.8023 34.5455 28.7449 34.5455 28.6938 34.5387V34.7091C28.7449 34.7159 28.8023 34.7159 28.8534 34.7159C28.9045 34.7159 28.9619 34.7159 29.013 34.7091C29.3194 34.6887 29.6195 34.6137 29.9131 34.4841C29.6706 34.5114 29.4216 34.5319 29.1726 34.5387ZM29.1726 34.5387C29.1215 34.5455 29.0641 34.5455 29.013 34.5387C28.9619 34.5455 28.9045 34.5455 28.8534 34.5455C28.8023 34.5455 28.7449 34.5455 28.6938 34.5387V34.7091C28.7449 34.7159 28.8023 34.7159 28.8534 34.7159C28.9045 34.7159 28.9619 34.7159 29.013 34.7091C29.3194 34.6887 29.6195 34.6137 29.9131 34.4841C29.6706 34.5114 29.4216 34.5319 29.1726 34.5387ZM29.1726 34.5387C29.1215 34.5455 29.0641 34.5455 29.013 34.5387C28.9619 34.5455 28.9045 34.5455 28.8534 34.5455C28.8023 34.5455 28.7449 34.5455 28.6938 34.5387V34.7091C28.7449 34.7159 28.8023 34.7159 28.8534 34.7159C28.9045 34.7159 28.9619 34.7159 29.013 34.7091C29.3194 34.6887 29.6195 34.6137 29.9131 34.4841C29.6706 34.5114 29.4216 34.5319 29.1726 34.5387ZM29.1726 34.5387C29.1215 34.5455 29.0641 34.5455 29.013 34.5387C28.9619 34.5455 28.9045 34.5455 28.8534 34.5455C28.8023 34.5455 28.7449 34.5455 28.6938 34.5387V34.7091C28.7449 34.7159 28.8023 34.7159 28.8534 34.7159C28.9045 34.7159 28.9619 34.7159 29.013 34.7091C29.3194 34.6887 29.6195 34.6137 29.9131 34.4841C29.6706 34.5114 29.4216 34.5319 29.1726 34.5387ZM29.1726 34.5387C29.1215 34.5455 29.0641 34.5455 29.013 34.5387C28.9619 34.5455 28.9045 34.5455 28.8534 34.5455C28.8023 34.5455 28.7449 34.5455 28.6938 34.5387V34.7091C28.7449 34.7159 28.8023 34.7159 28.8534 34.7159C28.9045 34.7159 28.9619 34.7159 29.013 34.7091C29.3194 34.6887 29.6195 34.6137 29.9131 34.4841C29.6706 34.5114 29.4216 34.5319 29.1726 34.5387ZM28.8534 14.0909C28.7832 14.0909 28.713 14.0909 28.6427 14.0978C26.9574 14.1319 25.3741 14.6228 23.9952 15.4546H25.4827C25.821 15.3046 26.1785 15.1819 26.536 15.0864H26.5424C26.6573 15.0523 26.7786 15.025 26.8999 14.9978C27.1872 14.9296 27.4808 14.875 27.7809 14.8409C27.7873 14.8409 27.7873 14.8409 27.7873 14.8409C28.0363 14.8069 28.2852 14.7864 28.5342 14.7796C28.5853 14.7728 28.6427 14.7728 28.6938 14.7796C28.7449 14.7728 28.8023 14.7728 28.8534 14.7728C28.9045 14.7728 28.9619 14.7728 29.013 14.7796C29.0641 14.7728 29.1215 14.7728 29.1726 14.7796C29.4216 14.7864 29.6706 14.8069 29.9131 14.8341C30.2132 14.8682 30.5069 14.9228 30.7941 14.9978C30.9091 15.0182 31.024 15.0455 31.1389 15.0796C32.7987 15.5296 34.2734 16.4569 35.4353 17.7182L35.5502 17.8409C35.6268 17.9228 35.7034 18.0114 35.7737 18.1C35.812 18.1409 35.8503 18.1819 35.8822 18.2296C37.2101 19.8796 38.0336 22 38.1038 24.3182C38.1102 24.3728 38.1102 24.4341 38.1102 24.4887V24.8296C38.1102 24.8841 38.1102 24.9455 38.1038 25C38.0974 25.2319 38.0847 25.4569 38.0655 25.6819H38.7039C38.7358 25.3478 38.7486 25.0069 38.7486 24.6591C38.7486 18.8296 34.3117 14.0909 28.8534 14.0909ZM29.1726 34.5387C29.1215 34.5455 29.0641 34.5455 29.013 34.5387C28.9619 34.5455 28.9045 34.5455 28.8534 34.5455C28.8023 34.5455 28.7449 34.5455 28.6938 34.5387V34.7091C28.7449 34.7159 28.8023 34.7159 28.8534 34.7159C28.9045 34.7159 28.9619 34.7159 29.013 34.7091C29.3194 34.6887 29.6195 34.6137 29.9131 34.4841C29.6706 34.5114 29.4216 34.5319 29.1726 34.5387ZM29.1726 34.5387C29.1215 34.5455 29.0641 34.5455 29.013 34.5387C28.9619 34.5455 28.9045 34.5455 28.8534 34.5455C28.8023 34.5455 28.7449 34.5455 28.6938 34.5387V34.7091C28.7449 34.7159 28.8023 34.7159 28.8534 34.7159C28.9045 34.7159 28.9619 34.7159 29.013 34.7091C29.3194 34.6887 29.6195 34.6137 29.9131 34.4841C29.6706 34.5114 29.4216 34.5319 29.1726 34.5387ZM29.1726 34.5387C29.1215 34.5455 29.0641 34.5455 29.013 34.5387C28.9619 34.5455 28.9045 34.5455 28.8534 34.5455C28.8023 34.5455 28.7449 34.5455 28.6938 34.5387V34.7091C28.7449 34.7159 28.8023 34.7159 28.8534 34.7159C28.9045 34.7159 28.9619 34.7159 29.013 34.7091C29.3194 34.6887 29.6195 34.6137 29.9131 34.4841C29.6706 34.5114 29.4216 34.5319 29.1726 34.5387ZM29.1726 34.5387C29.1215 34.5455 29.0641 34.5455 29.013 34.5387C28.9619 34.5455 28.9045 34.5455 28.8534 34.5455C28.8023 34.5455 28.7449 34.5455 28.6938 34.5387V34.7091C28.7449 34.7159 28.8023 34.7159 28.8534 34.7159C28.9045 34.7159 28.9619 34.7159 29.013 34.7091C29.3194 34.6887 29.6195 34.6137 29.9131 34.4841C29.6706 34.5114 29.4216 34.5319 29.1726 34.5387ZM29.1726 34.5387C29.1215 34.5455 29.0641 34.5455 29.013 34.5387C28.9619 34.5455 28.9045 34.5455 28.8534 34.5455C28.8023 34.5455 28.7449 34.5455 28.6938 34.5387V34.7091C28.7449 34.7159 28.8023 34.7159 28.8534 34.7159C28.9045 34.7159 28.9619 34.7159 29.013 34.7091C29.3194 34.6887 29.6195 34.6137 29.9131 34.4841C29.6706 34.5114 29.4216 34.5319 29.1726 34.5387ZM19.5966 24.3182V24.4C19.5966 24.3728 19.5966 24.3455 19.603 24.3182H19.5966ZM19.5966 24.4V24.4887H19.603C19.5966 24.4614 19.5966 24.4341 19.5966 24.4ZM29.1726 34.5387C29.1215 34.5455 29.0641 34.5455 29.013 34.5387C28.9619 34.5455 28.9045 34.5455 28.8534 34.5455C28.8023 34.5455 28.7449 34.5455 28.6938 34.5387V34.7091C28.7449 34.7159 28.8023 34.7159 28.8534 34.7159C28.9045 34.7159 28.9619 34.7159 29.013 34.7091C29.3194 34.6887 29.6195 34.6137 29.9131 34.4841C29.6706 34.5114 29.4216 34.5319 29.1726 34.5387ZM19.5966 24.3182V24.4C19.5966 24.3728 19.5966 24.3455 19.603 24.3182H19.5966ZM19.5966 24.4V24.4887H19.603C19.5966 24.4614 19.5966 24.4341 19.5966 24.4ZM29.1726 34.5387C29.1215 34.5455 29.0641 34.5455 29.013 34.5387C28.9619 34.5455 28.9045 34.5455 28.8534 34.5455C28.8023 34.5455 28.7449 34.5455 28.6938 34.5387V34.7091C28.7449 34.7159 28.8023 34.7159 28.8534 34.7159C28.9045 34.7159 28.9619 34.7159 29.013 34.7091C29.3194 34.6887 29.6195 34.6137 29.9131 34.4841C29.6706 34.5114 29.4216 34.5319 29.1726 34.5387ZM29.1726 34.5387C29.1215 34.5455 29.0641 34.5455 29.013 34.5387C28.9619 34.5455 28.9045 34.5455 28.8534 34.5455C28.8023 34.5455 28.7449 34.5455 28.6938 34.5387V34.7091C28.7449 34.7159 28.8023 34.7159 28.8534 34.7159C28.9045 34.7159 28.9619 34.7159 29.013 34.7091C29.3194 34.6887 29.6195 34.6137 29.9131 34.4841C29.6706 34.5114 29.4216 34.5319 29.1726 34.5387ZM29.1726 34.5387C29.1215 34.5455 29.0641 34.5455 29.013 34.5387C28.9619 34.5455 28.9045 34.5455 28.8534 34.5455C28.8023 34.5455 28.7449 34.5455 28.6938 34.5387V34.7091C28.7449 34.7159 28.8023 34.7159 28.8534 34.7159C28.9045 34.7159 28.9619 34.7159 29.013 34.7091C29.3194 34.6887 29.6195 34.6137 29.9131 34.4841C29.6706 34.5114 29.4216 34.5319 29.1726 34.5387ZM29.1726 34.5387C29.1215 34.5455 29.0641 34.5455 29.013 34.5387C28.9619 34.5455 28.9045 34.5455 28.8534 34.5455C28.8023 34.5455 28.7449 34.5455 28.6938 34.5387V34.7091C28.7449 34.7159 28.8023 34.7159 28.8534 34.7159C28.9045 34.7159 28.9619 34.7159 29.013 34.7091C29.3194 34.6887 29.6195 34.6137 29.9131 34.4841C29.6706 34.5114 29.4216 34.5319 29.1726 34.5387ZM32.2242 33.8637C31.873 34.0137 31.5091 34.1432 31.1389 34.2387C31.024 34.2728 30.9091 34.3 30.7941 34.3205C30.5069 34.3955 30.2132 34.45 29.9131 34.4841C29.6706 34.5114 29.4216 34.5319 29.1726 34.5387C29.1215 34.5455 29.0641 34.5455 29.013 34.5387C28.9619 34.5455 28.9045 34.5455 28.8534 34.5455C28.8023 34.5455 28.7449 34.5455 28.6938 34.5387C28.6427 34.5455 28.5853 34.5455 28.5342 34.5387C28.2852 34.5319 28.0363 34.5114 27.7937 34.4841C27.4936 34.45 27.1999 34.3955 26.9127 34.3205C26.7978 34.3 26.6828 34.2728 26.5679 34.2387C24.9081 33.7887 23.4334 32.8614 22.2715 31.6L22.1566 31.4773C22.08 31.3955 22.0034 31.3069 21.9331 31.2182C21.8948 31.1773 21.8565 31.1364 21.8246 31.0887C20.7393 29.7387 19.9924 28.075 19.7179 26.2478C19.686 26.0569 19.6604 25.8728 19.6477 25.6819H19.0093C19.4881 31.0341 23.7143 35.2273 28.8534 35.2273C30.6218 35.2273 32.2752 34.7296 33.7116 33.8637H32.2242ZM19.5966 24.3182V24.4C19.5966 24.3728 19.5966 24.3455 19.603 24.3182H19.5966ZM19.5966 24.4V24.4887H19.603C19.5966 24.4614 19.5966 24.4341 19.5966 24.4Z" fill="#7CBECC"/>
    <path d="M39.0525 10.2728C40.8559 10.2728 42.3236 11.8403 42.3236 13.7664V35.5519C42.3236 37.478 40.8559 39.0455 39.0525 39.0455H18.6543C16.8508 39.0455 15.3831 37.478 15.3831 35.5519V13.7664C15.3831 11.8403 16.8508 10.2728 18.6543 10.2728H39.0525M39.0525 9.31824H18.6543C16.3541 9.31824 14.4894 11.3098 14.4894 13.7664V35.5519C14.4894 38.0085 16.3541 40.0001 18.6543 40.0001H39.0525C41.3526 40.0001 43.2174 38.0085 43.2174 35.5519V13.7664C43.2174 11.3098 41.3526 9.31824 39.0525 9.31824Z" fill="#472B29"/>
    <path d="M28.6938 34.8864V14.4319H29.013V34.8864H28.6938Z" fill="#7CBECC"/>
    <path d="M23.976 22.9546C23.976 22.961 23.976 22.961 23.976 22.9674L23.8164 22.9546H23.976Z" fill="#472C29"/>
    <path d="M29.9132 34.4841C30.2132 34.45 30.5069 34.3955 30.7941 34.3205C30.194 34.7977 29.5365 35.0568 28.8534 35.0568C28.1703 35.0568 27.5128 34.7977 26.9127 34.3205C25.904 33.5364 25.0485 32.1455 24.4548 30.3727C24.4229 30.2705 24.391 30.1682 24.3591 30.0591C23.8803 28.5318 23.6058 26.7386 23.5866 24.8296V24.6591C23.5866 24.6046 23.5866 24.5432 23.593 24.4886H23.9122C23.9058 24.5432 23.9058 24.6046 23.9058 24.6591V24.8296C23.925 26.7046 24.1931 28.4636 24.6464 29.9568C24.6847 30.0591 24.7166 30.1682 24.7485 30.2705C25.4507 32.3773 26.536 33.925 27.7937 34.4841C28.0873 34.6136 28.3874 34.6886 28.6938 34.7091C28.7449 34.7159 28.8023 34.7159 28.8534 34.7159C28.9045 34.7159 28.9619 34.7159 29.013 34.7091C29.3194 34.6886 29.6195 34.6136 29.9132 34.4841Z" fill="#7CBECC"/>
    <path d="M34.1202 24.4886V24.8295H33.801V24.4886C33.7819 22.6136 33.5137 20.8545 33.0605 19.3614C33.0222 19.2591 32.9902 19.15 32.9583 19.0477C32.2561 16.9409 31.1708 15.3932 29.9132 14.8341C29.6195 14.7045 29.3194 14.6295 29.013 14.6091C28.9619 14.6023 28.9045 14.6023 28.8534 14.6023C28.8023 14.6023 28.7449 14.6023 28.6938 14.6159C28.3874 14.6295 28.0873 14.7045 27.7873 14.8409C27.7873 14.8409 27.7873 14.8409 27.7809 14.8409C27.4808 14.875 27.1872 14.9295 26.8999 14.9977C27.5128 14.5136 28.1767 14.2614 28.8534 14.2614C29.5365 14.2614 30.194 14.5204 30.7941 14.9977C31.8028 15.7818 32.6583 17.1727 33.252 18.9454C33.2839 19.0477 33.3158 19.15 33.3477 19.2591C33.8265 20.7864 34.1011 22.5795 34.1202 24.4886Z" fill="#7CBECC"/>
    <path d="M38.4294 24.4886V24.8296H21.4863L21.8055 24.4886H38.4294Z" fill="#7CBECC"/>
    <path d="M35.9588 17.9909C35.9013 18.0318 35.8375 18.0659 35.7736 18.1C35.1225 18.5023 34.3053 18.9182 33.3477 19.2591C33.252 19.3 33.1562 19.3341 33.0604 19.3614C31.8986 19.7568 30.5388 20.0364 29.013 20.05C28.9619 20.0568 28.9045 20.0568 28.8534 20.0568C28.8023 20.0568 28.7449 20.0568 28.6938 20.05V19.7091C28.7449 19.7159 28.8023 19.7159 28.8534 19.7159C28.9045 19.7159 28.9619 19.7159 29.013 19.7091C30.5005 19.6955 31.8283 19.4227 32.9583 19.0477C33.0604 19.0136 33.1562 18.9796 33.252 18.9455C34.1585 18.6114 34.9246 18.2159 35.5502 17.8409C35.6332 17.7864 35.7162 17.7386 35.7928 17.6909L35.9588 17.9909Z" fill="#7CBECC"/>
    <path d="M29.013 29.2682V29.6091C28.9619 29.6023 28.9045 29.6023 28.8534 29.6023C28.8023 29.6023 28.7449 29.6023 28.6938 29.6091C27.2063 29.6227 25.8784 29.8954 24.7485 30.2704C24.6463 30.3045 24.5506 30.3386 24.4548 30.3727C23.5483 30.7068 22.7822 31.1023 22.1566 31.4773C22.0736 31.5318 21.9906 31.5795 21.914 31.6273L21.748 31.3273C21.8054 31.2864 21.8693 31.2523 21.9331 31.2182C22.5843 30.8159 23.4014 30.4 24.359 30.0591C24.4548 30.0182 24.5506 29.9841 24.6463 29.9568C25.8082 29.5614 27.168 29.2818 28.6938 29.2682C28.7449 29.2614 28.8023 29.2614 28.8534 29.2614C28.9045 29.2614 28.9619 29.2614 29.013 29.2682Z" fill="#7CBECC"/>
    <path d="M23.7462 21.5909C23.6197 21.5909 23.4997 21.5098 23.4499 21.3768L22.4694 18.7586L21.4888 21.3761C21.423 21.5514 21.2366 21.6373 21.0744 21.5664C20.9104 21.4961 20.8312 21.2977 20.897 21.1232L22.1738 17.7141C22.2695 17.455 22.6698 17.455 22.7662 17.7141L24.043 21.1232C24.1088 21.2977 24.0296 21.4961 23.8655 21.5664C23.826 21.5834 23.7857 21.5909 23.7462 21.5909Z" fill="#472C29"/>
    <path d="M23.1078 20.4748H21.831C21.6548 20.4748 21.5118 20.3221 21.5118 20.1339C21.5118 19.9457 21.6548 19.793 21.831 19.793H23.1078C23.284 19.793 23.427 19.9457 23.427 20.1339C23.427 20.3221 23.284 20.4748 23.1078 20.4748Z" fill="#472C29"/>
    <path d="M16.0854 43.0682V43.4091H18.0006V43.0682C18.0006 43.0682 20.7087 43.0682 21.5118 43.0682C23.0982 43.0682 24.3846 41.6943 24.3846 40C24.3846 38.4093 23.247 37.1166 21.7959 36.9625C21.8099 36.8391 21.831 36.7184 21.831 36.5909C21.831 34.8966 20.5446 33.5227 18.9582 33.5227C18.0402 33.5227 17.2326 33.9905 16.7065 34.7064C16.6172 32.9091 15.2369 31.4773 13.5318 31.4773C11.7692 31.4773 10.3398 33.0039 10.3398 34.8864C10.3398 35.1905 10.3889 35.4796 10.4592 35.7605C10.0493 35.2307 9.43709 34.8864 8.74378 34.8864C7.60679 34.8864 6.6792 35.7966 6.53811 36.9693C6.42256 36.9543 6.30956 36.9318 6.19018 36.9318C4.60376 36.9318 3.31738 38.3057 3.31738 40C3.31738 41.6943 4.60376 43.0682 6.19018 43.0682C7.77661 43.0682 12.255 43.0682 12.255 43.0682H16.0854Z" fill="#FDFCEF"/>
    <path d="M13.5318 31.1364C11.5955 31.1364 10.0206 32.8184 10.0206 34.8864C10.0206 34.8973 10.0206 34.9075 10.0206 34.9184C9.63625 34.6764 9.19703 34.5454 8.74377 34.5454C7.57486 34.5454 6.56619 35.4052 6.28082 36.5943C6.25082 36.5923 6.22081 36.5909 6.19017 36.5909C4.4301 36.5909 2.99817 38.1202 2.99817 40C2.99817 41.8798 4.4301 43.4091 6.19017 43.4091H16.0854C16.2616 43.4091 16.4046 43.2564 16.4046 43.0682C16.4046 42.88 16.2616 42.7273 16.0854 42.7273H6.19017C4.78186 42.7273 3.63657 41.5041 3.63657 40C3.63657 38.4959 4.78186 37.2727 6.19017 37.2727C6.26486 37.2727 6.337 37.2843 6.40914 37.2945L6.49915 37.3075C6.51256 37.3095 6.52533 37.3102 6.53874 37.3102C6.69578 37.3102 6.83368 37.1841 6.85474 37.0123C6.97668 35.9943 7.78872 35.2273 8.74377 35.2273C9.30875 35.2273 9.84373 35.5007 10.2127 35.9773C10.2753 36.0577 10.3666 36.1014 10.4592 36.1014C10.5089 36.1014 10.5587 36.0891 10.6047 36.0632C10.7381 35.9902 10.8052 35.8273 10.7669 35.6725C10.6934 35.3759 10.659 35.1264 10.659 34.8864C10.659 33.1948 11.9479 31.8182 13.5318 31.8182C15.0518 31.8182 16.3069 33.0945 16.388 34.7248C16.395 34.8666 16.4837 34.9886 16.6108 35.0316C16.6427 35.0425 16.6752 35.0479 16.7078 35.0479C16.8036 35.0479 16.8968 35.0009 16.9581 34.917C17.4503 34.2475 18.1787 33.8636 18.9582 33.8636C20.3665 33.8636 21.5118 35.0868 21.5118 36.5909C21.5118 36.6707 21.5009 36.7477 21.4913 36.8248L21.4792 36.9209C21.469 37.0123 21.4933 37.1036 21.5469 37.1752C21.6005 37.2468 21.679 37.2925 21.7639 37.3014C23.0765 37.4411 24.0654 38.6016 24.0654 40C24.0654 41.5041 22.9201 42.7273 21.5118 42.7273H18.0006C17.8244 42.7273 17.6814 42.88 17.6814 43.0682C17.6814 43.2564 17.8244 43.4091 18.0006 43.4091H21.5118C23.2718 43.4091 24.7038 41.8798 24.7038 40C24.7038 38.3657 23.6255 36.9911 22.1483 36.6748C22.1495 36.6468 22.1502 36.6189 22.1502 36.5909C22.1502 34.7111 20.7182 33.1818 18.9582 33.1818C18.2074 33.1818 17.4943 33.4654 16.9261 33.9754C16.5444 32.3364 15.1629 31.1364 13.5318 31.1364Z" fill="#472B29"/>
    <path d="M12.5742 35.9092C11.6785 35.9092 10.9086 36.5903 10.7145 37.5053C10.4802 37.354 10.2127 37.2728 9.94078 37.2728C9.17343 37.2728 8.53758 37.8844 8.43863 38.6828C8.30903 38.6515 8.18582 38.6365 8.06516 38.6365C7.08905 38.6365 6.27062 39.4546 6.20231 40.4992C6.19657 40.5933 6.26296 40.6751 6.35042 40.6819C6.35425 40.6819 6.35808 40.6819 6.36191 40.6819C6.4449 40.6819 6.51513 40.613 6.52087 40.5237C6.57769 39.6571 7.25567 38.9774 8.06516 38.9774C8.21136 38.9774 8.36521 39.006 8.5363 39.064C8.55035 39.0687 8.56503 39.0708 8.57908 39.0708C8.61419 39.0708 8.6493 39.0571 8.67867 39.034C8.71952 39.0026 8.74378 38.9467 8.74378 38.8921C8.74378 38.1871 9.28068 37.6137 9.94078 37.6137C10.2261 37.6137 10.5058 37.7283 10.7267 37.9362C10.7567 37.9642 10.7943 37.9792 10.832 37.9792C10.8524 37.9792 10.8722 37.9751 10.8914 37.9662C10.9475 37.9424 10.9858 37.8865 10.9903 37.8217C11.0567 36.9401 11.7519 36.2501 12.5742 36.2501C12.707 36.2501 12.8455 36.2733 13.0096 36.323C13.0243 36.3278 13.0396 36.3299 13.0543 36.3299C13.1238 36.3299 13.1864 36.2801 13.2068 36.2058C13.2311 36.1151 13.1819 36.021 13.097 35.9951C12.9042 35.9365 12.7376 35.9092 12.5742 35.9092Z" fill="#472B29"/>
    <path d="M21.4371 36.9319C20.5906 36.9319 19.836 37.5435 19.6023 38.4196C19.5781 38.5103 19.6272 38.6044 19.7121 38.6303C19.7275 38.6344 19.7421 38.6364 19.7562 38.6364C19.8258 38.6364 19.8896 38.5873 19.9094 38.5123C20.1041 37.7828 20.7323 37.2728 21.4371 37.2728C21.5118 37.2728 21.5839 37.2823 21.6554 37.2926C21.6631 37.2939 21.6701 37.2946 21.6778 37.2946C21.755 37.2946 21.824 37.2319 21.8348 37.1467C21.8469 37.0533 21.7857 36.9673 21.6982 36.9551C21.6126 36.9428 21.5258 36.9319 21.4371 36.9319Z" fill="#472B29"/>
  </symbol>

  <symbol viewBox="0 0 90 150" fill="none" id="diagram">
    <g clip-path="url(#clip0_74_2)">
    <path d="M67.128 5.13V116.73L78.2 121.47L89.272 116.73V5.13H67.128Z" fill="#9484CB"/>
    <path d="M78.034 5.125V121.435L78.194 121.495L89.266 116.755V5.125H78.034Z" fill="#6C6096"/>
    <path d="M78.2 0.299988L67.128 5.48999L78.2 10.68L89.272 5.48999L78.2 0.299988Z" fill="#5E49A6"/>
    <path d="M55.998 24.435V121.395L67.07 126.165L78.142 121.395V24.435H55.998Z" fill="#457F81"/>
    <path d="M66.938 24.435H55.962V121.395L66.938 126.105V24.435Z" fill="#65B9BC"/>
    <path d="M67.07 19.56L55.998 24.75L67.07 29.94L78.142 24.75L67.07 19.56Z" fill="#345F61"/>
    <path d="M44.858 41.64V126.06L55.93 130.8L67.002 126.06V41.64H44.858Z" fill="#2EADAB"/>
    <path d="M55.808 41.645H44.832V126.065L55.808 130.775V41.645Z" fill="#3EE0DD"/>
    <path d="M55.93 36.73L44.858 41.92L55.93 47.11L67.002 41.92L55.93 36.73Z" fill="#278886"/>
    <path d="M33.728 59.6V130.73L44.8 135.5L55.872 130.73V59.6H33.728Z" fill="#6C6096"/>
    <path d="M44.766 59.6H33.694V130.85L44.766 135.38V59.6Z" fill="#9484CB"/>
    <path d="M44.8 54.65L33.728 59.84L44.8 65.03L55.872 59.84L44.8 54.65Z" fill="#5E49A6"/>
    <path d="M22.598 76.905V135.435L33.67 140.175L44.742 135.435V76.905H22.598Z" fill="#A6A63E"/>
    <path d="M33.538 76.905H22.562V135.435L33.538 140.115V76.905Z" fill="#D6D653"/>
    <path d="M33.67 71.91L22.598 77.1L33.67 82.29L44.742 77.1L33.67 71.91Z" fill="#8D8D35"/>
    <path d="M11.528 97.135V140.065L22.6 144.805L33.672 140.065V97.135H11.528Z" fill="#3EE0DD"/>
    <path d="M22.57 97.135V144.745L22.698 144.805L33.77 140.065V97.135H22.57Z" fill="#2EADAB"/>
    <path d="M22.6 91.69L11.528 96.88L22.6 102.07L33.672 96.88L22.6 91.69Z" fill="#278886"/>
    <path d="M0.397987 116.38V144.67L11.47 149.44L22.542 144.67V116.38H0.397987Z" fill="#457F81"/>
    <path d="M11.47 111.35L0.397993 116.54L11.47 121.73L22.542 116.54L11.47 111.35Z" fill="#345F61"/>
    </g>
    <defs>
    <clipPath id="clip0_74_2">
    <rect width="90" height="150" fill="white"/>
    </clipPath>
    </defs>
  </symbol>

  <symbol viewBox="0 0 600 460" fill="none" id="welcome">
    <g clip-path="url(#clip0_65_251)">
    <path d="M56.699 457.869H183.92V453.829C183.92 450.321 182.573 446.956 180.176 444.476C177.779 441.995 174.529 440.601 171.139 440.601H69.4798C66.0901 440.601 62.8393 441.995 60.4424 444.476C58.0456 446.956 56.699 450.321 56.699 453.829V457.869Z" fill="#F2F2F2"/>
    <path d="M123.287 441.408L119.418 439.795C159.898 335.803 155.998 204.608 121.779 92.0653C117.715 79.0257 117.421 65.0407 120.936 51.8309C124.45 38.6211 131.619 26.7627 141.561 17.7146C161.423 -0.62942 188.805 -5.09819 213.027 6.05106C236.935 17.058 240.23 36.2305 240.23 55.3097H236.059C236.059 34.9436 231.854 19.4437 211.331 9.99548C188.63 -0.453409 162.96 3.73765 144.338 20.9361C135.001 29.4341 128.267 40.5719 124.966 52.9791C121.665 65.3862 121.94 78.5216 125.758 90.7689C160.372 204.611 164.044 336.707 123.287 441.408Z" fill="#3F3D56"/>
    <path d="M237.102 118.985C229.039 118.985 222.503 112.221 222.503 103.876C222.503 95.5311 229.039 88.7664 237.102 88.7664C245.165 88.7664 251.701 95.5311 251.701 103.876C251.701 112.221 245.165 118.985 237.102 118.985Z" fill="#F2F2F2"/>
    <path d="M259.586 130.216V101.587H255.285V130.216C254.051 130.733 253.029 131.677 252.395 132.888C251.76 134.099 251.552 135.5 251.806 136.852C252.06 138.204 252.761 139.423 253.788 140.299C254.815 141.175 256.104 141.654 257.435 141.654C258.766 141.654 260.056 141.175 261.083 140.299C262.11 139.423 262.811 138.204 263.065 136.852C263.319 135.5 263.111 134.099 262.476 132.888C261.842 131.677 260.82 130.733 259.586 130.216Z" fill="#F2F2F2"/>
    <path d="M280.378 79.5926C280.371 73.0115 277.841 66.7021 273.345 62.0486C268.849 57.395 262.753 54.7774 256.394 54.7699H216.768C210.407 54.7699 204.306 57.3851 199.808 62.0403C195.31 66.6955 192.783 73.0092 192.783 79.5926C192.783 86.176 195.31 92.4898 199.808 97.1449C204.306 101.8 210.407 104.415 216.768 104.415H256.394C262.753 104.408 268.849 101.79 273.345 97.1367C277.841 92.4831 280.371 86.1737 280.378 79.5926Z" fill="#6C63FF"/>
    <path d="M336.209 233.311C332.231 180.63 311.889 155.53 324.914 139.789C337.391 124.712 372.536 127.827 395.106 142.295C455.984 181.318 478.288 336.849 399.947 412.838C325.504 485.047 184.419 461.92 153.065 402.818C145.749 389.028 139.937 364.853 150.644 350.212C177.227 313.864 273.875 379.701 316.846 338.522C342.312 314.118 338.393 262.222 336.209 233.311Z" fill="#3F3D56"/>
    <path d="M289.674 207.138C291.152 207.842 292.307 209.116 292.892 210.687C293.478 212.259 293.448 214.005 292.808 215.554C292.673 215.867 292.514 216.168 292.331 216.453L305.398 234.51L298.877 244.596L283.562 217.857C282.476 216.981 281.702 215.758 281.359 214.379C281.016 213 281.124 211.542 281.666 210.233C281.981 209.491 282.434 208.821 283 208.26C283.565 207.7 284.232 207.26 284.962 206.966C285.692 206.672 286.47 206.53 287.253 206.547C288.036 206.565 288.808 206.742 289.525 207.068C289.575 207.091 289.624 207.114 289.674 207.138Z" fill="#FFB6B6"/>
    <path d="M289.684 238.271C288.829 239.056 291.201 240.025 293.71 238.497C294.428 238.054 294.735 237.871 294.815 237.988C295.017 238.28 293.839 240.434 294.154 245.219C294.348 248.075 298.93 253.444 304.134 258.679C311.169 265.76 319.35 272.59 319.35 272.59L322.223 270.211L352.341 245.219L357.423 237.938C356.958 235.062 356.259 232.233 355.334 229.479C354.059 225.667 352.545 221.946 350.8 218.34C349.864 216.378 348.904 214.507 347.984 212.787L331.848 231.191L318.326 246.605C318.326 246.605 314.389 240.042 311.339 238.255C310.95 237.998 310.507 237.84 310.048 237.796C306.966 237.645 306.78 235.908 310.354 232.126C313.929 228.343 309.419 231.875 306.24 230.857C303.061 229.838 306.24 230.857 305.57 228.31C304.9 225.763 295.985 220.653 295.985 220.653L295.614 220.995L288.877 227.149L286.949 228.911C286.949 228.911 289.055 234.89 289.636 236.151C290.217 237.411 290.531 237.478 289.684 238.271Z" fill="#6C63FF"/>
    <path d="M112.093 354.268L111.764 345.057L145.934 339.363L146.419 352.956L112.093 354.268Z" fill="#FFB6B6"/>
    <path d="M118.295 357.04L118.619 342.293L112.528 342.526L102.694 328.893C102.208 328.22 101.527 327.725 100.751 327.48C99.9739 327.235 99.142 327.254 98.3763 327.534C97.6106 327.813 96.9513 328.339 96.4946 329.033C96.0379 329.728 95.8078 330.556 95.8377 331.396L96.4623 348.914L102.595 351.703L96.612 353.112L96.8474 359.717L118.295 357.04Z" fill="#2F2E41"/>
    <path d="M304.402 357.853L196.175 360.693C196.175 360.693 149.439 363.487 138.473 356.104L126.91 354.594L126.283 337.014C126.283 337.014 133.354 337.068 137.42 335.108C141.485 333.148 138.66 330.749 142.536 333.107C146.412 335.466 146.002 335.75 148.999 334.666C151.996 333.582 289.424 311.902 289.424 311.902L304.402 357.853Z" fill="#2F2E41"/>
    <path d="M161.787 350.225L155.494 343.705L176.802 315.478L186.09 325.102L161.787 350.225Z" fill="#FFB6B6"/>
    <path d="M168.157 344.552L158.703 333.513L154.39 337.971L138.222 334.899C137.424 334.747 136.599 334.864 135.869 335.231C135.139 335.599 134.541 336.198 134.164 336.942C133.786 337.686 133.648 338.535 133.77 339.366C133.892 340.197 134.267 340.965 134.841 341.56L146.81 353.963L153.14 351.691L149.679 356.935L154.192 361.612L168.157 344.552Z" fill="#2F2E41"/>
    <path d="M347.101 296.509L346.025 322.394C344.758 352.866 312.333 371.309 287.19 355.399C286.727 355.106 286.262 354.802 285.795 354.488C285.795 354.488 276.264 351.839 276.553 347.643C276.842 343.448 274.514 341.406 272.453 342.55C270.392 343.694 243.411 304.064 243.411 304.064C243.411 304.064 187.353 333.004 174.986 339.817C174.986 339.817 163.359 321.002 164.202 321.199C165.045 321.396 233.552 271.77 233.552 271.77C233.552 271.77 244.713 260.08 258.558 267.799C258.846 268.933 258.599 268.972 258.599 268.972L304.333 307.54L310.795 294.839L347.101 296.509Z" fill="#2F2E41"/>
    <path d="M303.981 264.149C304.068 265.344 304.232 266.533 304.473 267.706C304.802 269.404 305.333 271.053 306.054 272.616C306.054 272.616 306.054 274.361 309.281 280.206C312.509 286.051 308.475 283.546 306.054 287.888C303.634 292.222 306.054 290.226 308.741 293.015C309.514 293.827 310.064 294.838 310.332 295.943C310.6 297.049 310.577 298.209 310.266 299.303C310.266 299.303 344.926 299.328 351.381 296.823C357.835 294.318 359.303 280.206 353.519 278.811C347.742 277.417 355.269 276.031 358.666 272.816C362.063 269.601 355.269 264.341 355.269 264.341C355.269 264.341 358.069 259.339 357.835 242.547C357.802 241.002 357.664 239.462 357.424 237.938C356.958 235.062 356.259 232.233 355.334 229.479C354.059 225.667 352.545 221.946 350.8 218.34C349.864 216.378 348.904 214.507 347.984 212.787C347.839 212.52 347.702 212.261 347.556 212.002C345.806 208.796 344.208 206.174 343.151 204.495C342.336 203.193 341.844 202.458 341.844 202.458L335.971 191.887L316.365 201.397L317.479 216.954L314.098 228.686L312.541 234.088L311.339 238.255L309.483 244.709C309.483 244.709 309.992 244.735 309.386 245.595C306.6 249.429 304.793 253.93 304.134 258.679C303.902 260.492 303.85 262.325 303.981 264.149Z" fill="#6C63FF"/>
    <path d="M247.363 265.825L247.731 265.702L294.655 250.063L277.364 191.352C277.02 190.183 276.423 189.11 275.62 188.214C274.817 187.318 273.828 186.622 272.727 186.18C271.626 185.737 270.443 185.559 269.266 185.658C268.089 185.758 266.949 186.132 265.932 186.754L235.945 205.09C233.572 206.54 231.766 208.807 230.843 211.495C229.92 214.183 229.94 217.121 230.898 219.796L247.363 265.825Z" fill="#2F2E41"/>
    <path d="M247.172 269.557L294.474 253.793L277.183 195.082C276.839 193.912 276.242 192.839 275.439 191.944C274.636 191.048 273.647 190.352 272.546 189.909C271.445 189.467 270.262 189.288 269.085 189.388C267.907 189.487 266.768 189.862 265.751 190.483L234.333 206.718C229.612 209.604 229.723 217.072 231.914 223.199L247.172 269.557Z" fill="#6C63FF"/>
    <path d="M251.908 273.807C252.997 274.443 254.202 274.837 255.447 274.966C256.691 275.094 257.948 274.952 259.137 274.551L289.371 264.474C291.691 263.69 293.623 261.998 294.753 259.759C295.884 257.521 296.124 254.914 295.422 252.495L280.264 201.027C279.961 199.999 279.463 199.044 278.799 198.218C278.134 197.391 277.317 196.711 276.395 196.215C275.474 195.72 274.465 195.42 273.43 195.334C272.395 195.247 271.353 195.375 270.367 195.711L239.035 206.358C237.542 206.865 236.162 207.677 234.977 208.745C233.793 209.813 232.827 211.117 232.137 212.578C231.447 214.039 231.047 215.628 230.961 217.252C230.874 218.876 231.103 220.501 231.634 222.032L247.841 268.795C248.568 270.919 250.013 272.698 251.908 273.807Z" fill="#3F3D56"/>
    <path d="M317.474 192.067C305.514 192.067 295.818 182.033 295.818 169.655C295.818 157.277 305.514 147.242 317.474 147.242C329.434 147.242 339.129 157.277 339.129 169.655C339.129 182.033 329.434 192.067 317.474 192.067Z" fill="#FFB6B6"/>
    <path d="M390.702 192.405C388.715 196.392 385.456 199.544 381.479 201.328C379.892 202.076 378.223 202.623 376.509 202.956C376.025 200.967 375.249 199.067 374.209 197.321C374.556 199.289 374.556 201.305 374.209 203.273C371.598 203.494 368.97 203.157 366.49 202.282C364.055 201.424 361.846 199.991 360.038 198.096C358.231 196.202 356.876 193.897 356.079 191.365C354.354 185.424 356.212 179.079 356.358 172.878C356.509 166.676 353.664 159.259 347.715 158.491C343.185 157.906 343.745 158.361 340.49 161.673C345.043 166.908 333.943 190.093 327.987 189.069C324.619 188.489 322.141 185.722 321.475 185.818C318.065 194.463 328.324 206.722 320.187 210.747L320.791 209.92C325.05 202.638 312.447 190.339 316.706 183.057C317.894 181.02 319.128 178.631 318.394 176.378C317.696 174.235 314.165 173.557 313.42 175.507C314.631 171.038 311.251 165.791 306.76 165.335C302.771 164.928 303.001 166.105 299.198 167.178C298.712 165.482 298.011 163.861 297.115 162.355C297.418 164.073 297.456 165.83 297.226 167.56C295.854 167.729 294.466 167.425 293.279 166.695C289.766 164.516 289.662 158.891 292.075 155.467C294.492 152.043 298.541 150.352 302.447 149.073C302.483 140.523 324.711 136.431 328.799 144.379C329.219 137.943 336.348 133.608 342.488 134.701C348.629 135.794 353.474 140.891 356.427 146.571C359.38 152.246 360.846 158.601 363.008 164.647C365.17 170.692 368.26 176.72 373.437 180.307C378.613 183.89 386.305 184.215 390.626 179.572C391.612 181.554 392.133 183.749 392.146 185.979C392.159 188.209 391.664 190.41 390.702 192.405Z" fill="#2F2E41"/>
    <path d="M368.482 294.896C368.034 294.525 367.548 294.206 367.032 293.945C358.743 289.676 332.967 278.593 312.812 279.048C274.032 279.923 224.68 324.218 236.166 353.963C244.906 376.597 288.356 389.474 320.073 379.175C364.507 364.747 382.045 306.088 368.482 294.896Z" fill="#3F3D56"/>
    <path d="M529.473 457.955C542.145 455.48 553.361 396.397 528.43 367.298C519.888 357.328 509.234 352.989 495.061 348.95C413.487 325.707 351.269 347.859 342.908 353.267C334.566 358.664 319.941 439.97 338.642 451.479C349.165 457.955 370.02 461.192 380.354 453.638C395.559 442.521 370.037 413.687 381.397 394.279C394.287 372.254 462.167 364.836 496.198 386.724C532.506 410.077 457.615 471.985 529.473 457.955Z" fill="#F2F2F2"/>
    <path d="M444.752 357.499H493.162C505.113 345.646 513.657 334.222 506.816 324.74C506.816 322.014 505.77 319.4 503.908 317.472C502.046 315.545 499.52 314.462 496.886 314.462H441.028C438.394 314.462 435.868 315.545 434.006 317.472C432.144 319.4 431.098 322.014 431.098 324.74C428.493 335.544 433.146 346.466 444.752 357.499Z" fill="#9A9999"/>
    <path d="M453.446 301.524C453.905 301.546 454.36 301.421 454.749 301.166C455.137 300.912 455.44 300.54 455.618 300.101C455.795 299.662 455.838 299.177 455.74 298.712C455.642 298.247 455.409 297.824 455.071 297.501L454.918 296.869C454.938 296.818 454.958 296.768 454.979 296.717C455.441 295.586 456.217 294.621 457.207 293.945C458.198 293.268 459.36 292.91 460.547 292.914C461.734 292.919 462.893 293.286 463.878 293.97C464.864 294.655 465.633 295.625 466.087 296.76C467.904 301.289 470.217 305.825 470.787 310.614C471.038 312.73 470.932 314.876 470.474 316.955C474.741 307.321 476.957 296.85 476.972 286.252C476.973 283.592 476.83 280.935 476.544 278.292C476.308 276.125 475.98 273.974 475.561 271.838C473.274 260.249 468.363 249.387 461.232 240.144C457.781 238.195 454.99 235.198 453.235 231.556C452.599 230.247 452.15 228.85 451.901 227.408C452.29 227.461 453.369 221.324 453.075 220.947C453.618 220.095 454.589 219.672 455.181 218.84C458.129 214.705 462.189 215.427 464.309 221.047C468.837 223.412 468.881 227.334 466.102 231.107C464.334 233.507 464.092 236.755 462.541 239.325C462.7 239.536 462.866 239.741 463.026 239.952C465.943 243.834 468.485 248.002 470.616 252.397C470.098 247.474 470.716 242.493 472.421 237.865C474.148 233.552 477.386 229.919 480.238 226.19C483.663 221.711 490.686 223.666 491.29 229.344C491.296 229.399 491.301 229.454 491.307 229.508C490.883 229.756 490.469 230.018 490.063 230.296C489.553 230.648 489.159 231.152 488.93 231.74C488.702 232.329 488.651 232.975 488.783 233.595C488.916 234.214 489.226 234.777 489.673 235.211C490.12 235.645 490.684 235.928 491.29 236.025L491.352 236.035C491.201 237.615 490.934 239.18 490.554 240.718C494.212 255.36 486.314 260.692 475.038 260.932C474.789 261.064 474.546 261.196 474.297 261.322C476.438 267.602 477.782 274.144 478.293 280.782C478.582 284.699 478.565 288.633 478.242 292.547L478.261 292.408C479.078 288.056 481.321 284.129 484.612 281.291C489.499 277.136 496.403 275.606 501.676 272.266C502.236 271.894 502.888 271.695 503.554 271.693C504.22 271.692 504.872 271.887 505.434 272.256C505.996 272.626 506.444 273.154 506.726 273.779C507.008 274.403 507.111 275.098 507.023 275.781C507.016 275.83 507.009 275.878 507.002 275.927C506.216 276.258 505.45 276.64 504.71 277.07C504.287 277.317 503.872 277.58 503.467 277.857C502.957 278.21 502.562 278.713 502.334 279.302C502.105 279.89 502.054 280.537 502.187 281.156C502.319 281.775 502.629 282.339 503.077 282.772C503.524 283.206 504.087 283.49 504.693 283.586L504.755 283.596C504.8 283.603 504.838 283.609 504.883 283.616C503.54 286.935 501.655 289.989 499.311 292.646C497.023 305.427 487.199 306.64 476.691 302.918H476.684C475.531 308.103 473.861 313.151 471.7 317.979H453.892C453.828 317.774 453.771 317.563 453.713 317.358C455.362 317.465 457.016 317.363 458.641 317.054C457.32 315.376 455.998 313.685 454.677 312.007C454.648 311.976 454.62 311.943 454.594 311.908C453.924 311.05 453.247 310.197 452.577 309.339L452.577 309.338C452.541 306.705 452.833 304.079 453.445 301.524L453.446 301.524Z" fill="#9A9999"/>
    <path d="M392.708 354.815C392.413 355.705 391.853 356.475 391.108 357.015C390.363 357.555 389.472 357.837 388.563 357.82L370.804 357.347C369.888 357.328 369.003 357.004 368.28 356.421C367.557 355.839 367.036 355.03 366.795 354.116L364.281 326.303C363.39 326.721 362.419 326.927 361.44 326.907C359.723 326.862 358.093 326.113 356.91 324.825C355.726 323.537 355.085 321.815 355.128 320.038C355.171 318.26 355.895 316.574 357.14 315.348C358.384 314.123 360.048 313.46 361.765 313.505C362.157 313.503 362.547 313.545 362.929 313.63C363.345 313.164 363.851 312.794 364.414 312.542C364.977 312.291 365.584 312.165 366.197 312.171L393.515 312.901C393.741 312.91 393.967 312.939 394.189 312.988C394.788 313.103 395.356 313.35 395.855 313.712C396.354 314.074 396.773 314.542 397.082 315.086C397.392 315.629 397.585 316.235 397.65 316.862C397.714 317.489 397.648 318.123 397.456 318.722L392.708 354.815ZM363.766 324.414L361.978 317.786C361.774 317.021 361.77 316.213 361.964 315.445C361.877 315.445 361.801 315.402 361.714 315.402C360.488 315.376 359.302 315.854 358.416 316.732C357.53 317.609 357.017 318.815 356.988 320.083C356.959 321.352 357.418 322.581 358.263 323.5C359.108 324.42 360.271 324.955 361.497 324.988C362.29 325.014 363.074 324.816 363.766 324.414Z" fill="#9A9999"/>
    <path d="M394.189 312.988C393.607 316.432 387.063 318.853 379.195 318.432C371.96 318.087 366.044 315.458 364.96 312.341C365.361 312.219 365.779 312.161 366.197 312.171L393.515 312.901C393.741 312.91 393.967 312.939 394.189 312.988Z" fill="white"/>
    <path d="M599.049 459.259L0.951111 459.513C0.698853 459.513 0.45697 459.409 0.278564 459.224C0.10022 459.04 0 458.789 0 458.528C0 458.267 0.10022 458.017 0.278564 457.832C0.45697 457.648 0.698853 457.544 0.951111 457.544L599.049 457.29C599.301 457.29 599.543 457.394 599.721 457.578C599.9 457.763 600 458.013 600 458.274C600 458.535 599.9 458.786 599.721 458.97C599.543 459.155 599.301 459.259 599.049 459.259Z" fill="#9A9999"/>
    <path d="M263.595 239.264C265.221 239.326 266.76 240.042 267.884 241.26C269.009 242.478 269.629 244.102 269.615 245.786C269.606 246.128 269.571 246.469 269.508 246.806L288.279 258.275L286.007 270.18L261.935 251.591C260.607 251.215 259.438 250.394 258.609 249.257C257.78 248.12 257.338 246.732 257.352 245.308C257.367 244.497 257.537 243.698 257.851 242.956C258.164 242.213 258.616 241.542 259.181 240.98C259.745 240.418 260.411 239.977 261.14 239.682C261.87 239.387 262.648 239.243 263.431 239.259C263.485 239.26 263.54 239.262 263.595 239.264Z" fill="#FFB6B6"/>
    <path d="M278.971 266.606C279.473 265.91 279.689 265.619 279.803 265.699C280.097 265.882 279.814 268.342 281.881 272.629C284.792 278.652 315.306 287.876 315.306 287.876L319.063 280.757L335.588 249.474L341.284 224.4C341.484 223.526 341.58 222.63 341.573 221.732C336.494 218.033 331.101 214.82 325.46 212.133C323.206 213.456 321.487 215.575 320.619 218.102L309.243 251.112L304.704 264.292C304.704 264.292 296.697 258.366 293.792 259.454C290.893 260.548 290.069 259.014 291.964 254.101C293.86 249.188 291.014 254.245 287.704 254.566C284.386 254.893 287.704 254.566 286.137 252.482C284.57 250.397 274.438 249.224 274.438 249.224L274.223 249.689L270.297 258.048L269.173 260.449C269.173 260.449 273.335 265.123 274.34 266.054C275.348 266.993 275.66 266.928 275.166 267.997C274.679 269.061 277.227 269.012 278.971 266.606Z" fill="#6C63FF"/>
    </g>
    <defs>
    <clipPath id="clip0_65_251">
    <rect width="600" height="460" fill="white" transform="matrix(-1 0 0 1 600 0)"/>
    </clipPath>
    </defs>
  </symbol>

  <symbol viewBox="0 0 140 50" fill="none" id="rss-logo">
    <g clip-path="url(#clip0_84_100)">
    <path d="M72.268 15.1571L78.8956 14.7321C79.0468 15.8071 79.324 16.6071 79.7776 17.1821C80.5084 18.0821 81.5164 18.5321 82.852 18.5321C83.8348 18.5321 84.616 18.3071 85.1452 17.8321C85.6492 17.4571 85.9516 16.8571 85.9516 16.2321C85.9516 15.6321 85.6744 15.0571 85.1956 14.6821C84.6916 14.2321 83.5072 13.7821 81.6424 13.3821C78.5932 12.7071 76.4008 11.8071 75.1156 10.6571C73.8304 9.58213 73.0996 8.00713 73.15 6.33213C73.15 5.18213 73.5028 4.03213 74.158 3.08213C74.914 2.00713 75.9472 1.15713 77.182 0.682129C78.5176 0.107129 80.3824 -0.192871 82.726 -0.192871C85.5988 -0.192871 87.7912 0.332129 89.3032 1.40713C90.8152 2.45713 91.7224 4.15713 91.9996 6.48213L85.4476 6.85713C85.2712 5.85713 84.9184 5.13213 84.3388 4.65713C83.7592 4.18213 83.0032 3.95713 82.0204 3.95713C81.214 3.95713 80.6092 4.13213 80.206 4.45713C79.828 4.75713 79.576 5.20713 79.6012 5.70713C79.6012 6.08213 79.8028 6.43213 80.1052 6.65713C80.4328 6.95713 81.214 7.23213 82.4488 7.48213C85.498 8.13213 87.6652 8.78213 89.0008 9.45713C90.3364 10.1321 91.294 10.9571 91.8736 11.9321C92.4784 12.9321 92.7808 14.0821 92.7556 15.2571C92.7556 16.6571 92.3524 18.0571 91.546 19.2321C90.7144 20.4571 89.5552 21.4071 88.1944 21.9821C86.758 22.6071 84.9436 22.9321 82.7764 22.9321C78.946 22.9321 76.3 22.2071 74.8132 20.7321C73.3264 19.2571 72.4444 17.4071 72.268 15.1571ZM1.93477 22.5571V0.207129H13.552C15.694 0.207129 17.3572 0.382129 18.4912 0.757129C19.6 1.10713 20.5828 1.83213 21.238 2.80713C21.9688 3.88213 22.3216 5.13213 22.2964 6.43213C22.372 8.63213 21.238 10.7321 19.2976 11.8321C18.5416 12.2571 17.71 12.5571 16.8532 12.7071C17.4832 12.8821 18.1132 13.1821 18.6676 13.5321C19.096 13.8821 19.4488 14.2821 19.7764 14.7071C20.1544 15.1321 20.482 15.6071 20.7592 16.1071L24.136 22.5821H16.2232L12.4936 15.7071C12.0148 14.8321 11.6116 14.2571 11.2336 13.9821C10.7296 13.6321 10.1248 13.4571 9.51997 13.4571H8.91517V22.5321H1.93477V22.5571ZM8.91517 9.25713H11.8636C12.4936 9.20713 13.0984 9.10713 13.7032 8.95713C14.1568 8.88213 14.56 8.63213 14.8372 8.25713C15.5176 7.35713 15.4168 6.08213 14.5852 5.30713C14.1316 4.93213 13.2496 4.73213 11.9896 4.73213H8.91517V9.25713ZM0.347168 41.7071L6.97477 41.2821C7.12597 42.3571 7.40317 43.1571 7.85677 43.7321C8.56237 44.6321 9.59557 45.1071 10.9312 45.1071C11.914 45.1071 12.6952 44.8821 13.2244 44.4071C13.7284 44.0071 14.0308 43.4321 14.0308 42.8071C14.0308 42.2071 13.7536 41.6321 13.2748 41.2571C12.7708 40.8071 11.5864 40.3571 9.69637 39.9571C6.64717 39.2821 4.45477 38.3821 3.16957 37.2321C1.88437 36.1571 1.15357 34.5821 1.20397 32.9071C1.20397 31.7571 1.55677 30.6071 2.21197 29.6571C2.96797 28.5821 4.00117 27.7321 5.23597 27.2571C6.57157 26.6821 8.43637 26.3821 10.78 26.3821C13.6528 26.3821 15.8452 26.9071 17.3572 27.9821C18.8692 29.0571 19.7512 30.7321 20.0284 33.0571L13.4764 33.4321C13.3 32.4321 12.9472 31.7071 12.3676 31.2321C11.8132 30.7571 11.032 30.5321 10.0492 30.5571C9.24277 30.5571 8.63797 30.7321 8.23477 31.0821C7.83157 31.3821 7.60477 31.8321 7.62997 32.3321C7.62997 32.7071 7.83157 33.0571 8.13397 33.2821C8.46157 33.5821 9.24277 33.8571 10.4776 34.1071C13.5268 34.7571 15.694 35.4071 17.0296 36.0821C18.3652 36.7571 19.3228 37.5821 19.9024 38.5571C20.5072 39.5571 20.8096 40.7071 20.8096 41.8571C20.8096 43.2571 20.3812 44.6321 19.6 45.8071C18.7684 47.0321 17.6092 47.9821 16.2484 48.5571C14.812 49.1821 12.9976 49.5071 10.8304 49.5071C6.99997 49.5071 4.35397 48.7821 2.86717 47.3071C1.38037 45.8071 0.548768 43.9571 0.347168 41.7071H0.347168Z" fill="#242730"/>
    <path d="M33.8631 39.9571L39.9615 41.7821C39.6339 43.3071 38.9535 44.7571 38.0211 46.0321C37.1643 47.1571 36.0303 48.0321 34.7451 48.6071C33.4347 49.1821 31.7715 49.4821 29.7555 49.4821C27.3111 49.4821 25.2951 49.1321 23.7579 48.4321C22.1955 47.7321 20.8599 46.4821 19.7259 44.7071C18.5919 42.9321 18.0375 40.6571 18.0375 37.8821C18.0375 34.1821 19.0203 31.3321 21.0111 29.3571C23.0019 27.3821 25.7991 26.3821 29.4279 26.3821C32.2755 26.3821 34.4931 26.9571 36.1311 28.0821C37.7439 29.2321 38.9535 30.9821 39.7599 33.3321L33.6111 34.6821C33.4599 34.1571 33.2331 33.6321 32.9307 33.1821C32.5527 32.6571 32.0739 32.2571 31.4943 31.9571C30.9147 31.6571 30.2595 31.5321 29.6043 31.5321C28.0167 31.5321 26.8071 32.1571 25.9755 33.4321C25.3455 34.3571 25.0179 35.8321 25.0179 37.8321C25.0179 40.3071 25.3959 42.0071 26.1519 42.9321C26.9079 43.8571 27.9663 44.3071 29.3523 44.3071C30.6879 44.3071 31.6959 43.9321 32.3763 43.2071C33.0567 42.4321 33.5607 41.3571 33.8631 39.9571ZM48.1011 26.7571H55.0563V34.5821H62.6667V26.7571H69.6723V49.1071H62.6667V40.0571H55.0563V49.1071H48.1011V26.7571Z" fill="#242730"/>
    <path d="M68.7148 37.9322C68.7148 34.2822 69.748 31.4322 71.7892 29.4072C73.8304 27.3822 76.7032 26.3572 80.3572 26.3572C84.112 26.3572 86.9848 27.3572 89.026 29.3572C91.0672 31.3572 92.0752 34.1572 92.0752 37.7572C92.0752 40.3822 91.6216 42.5072 90.7396 44.1822C89.8828 45.8322 88.5472 47.1822 86.9092 48.0822C85.2208 49.0072 83.1292 49.4822 80.6344 49.4822C78.0892 49.4822 75.9976 49.0822 74.3344 48.2822C72.6208 47.4322 71.2096 46.1072 70.2772 44.4822C69.244 42.7322 68.7148 40.5572 68.7148 37.9322ZM75.67 37.9572C75.67 40.2072 76.0984 41.8322 76.93 42.8322C77.7616 43.8072 78.9208 44.3072 80.3824 44.3072C81.8692 44.3072 83.0284 43.8322 83.86 42.8572C84.6916 41.8822 85.0948 40.1572 85.0948 37.6572C85.0948 35.5572 84.6664 34.0072 83.8096 33.0572C82.9528 32.0822 81.7936 31.6072 80.332 31.6072C79.0468 31.5572 77.812 32.1072 76.9552 33.0822C76.0984 34.0572 75.67 35.6822 75.67 37.9572ZM99.2068 37.9322C99.2068 34.2822 100.24 31.4322 102.281 29.4072C104.322 27.3822 107.195 26.3572 110.849 26.3572C114.604 26.3572 117.502 27.3572 119.518 29.3572C121.534 31.3572 122.567 34.1572 122.567 37.7572C122.567 40.3822 122.114 42.5072 121.232 44.1822C120.375 45.8322 119.039 47.1822 117.401 48.0822C115.713 49.0072 113.621 49.4822 111.126 49.4822C108.581 49.4822 106.49 49.0822 104.826 48.2822C103.113 47.4322 101.702 46.1072 100.769 44.4822C99.736 42.7322 99.2068 40.5572 99.2068 37.9322ZM106.162 37.9572C106.162 40.2072 106.59 41.8322 107.422 42.8322C108.254 43.8072 109.413 44.3072 110.874 44.3072C112.361 44.3072 113.52 43.8322 114.352 42.8572C115.184 41.8822 115.587 40.1572 115.587 37.6572C115.587 35.5572 115.158 34.0072 114.302 33.0572C113.445 32.0822 112.286 31.6072 110.824 31.6072C109.539 31.5572 108.279 32.1072 107.447 33.0822C106.59 34.0572 106.162 35.6822 106.162 37.9572Z" fill="#242730"/>
    <path d="M121.836 26.7571H128.792V43.6071H139.653V49.1071H121.811V26.7571H121.836Z" fill="#242730"/>
    <path d="M91.3003 15.0896C91.3003 7.93756 98.0528 2.13965 106.382 2.13965C114.712 2.13965 121.465 7.93756 121.465 15.0896C121.465 22.2417 114.712 28.0396 106.382 28.0396C98.0528 28.0396 91.3003 22.2417 91.3003 15.0896Z" stroke="#242730" stroke-width="1.15786" stroke-linecap="round"/>
    <path d="M99.0367 13.4821L101.557 11.7321L104.656 16.1071C105.185 16.8071 105.589 17.5571 105.891 18.3821C106.067 19.0071 106.017 19.6821 105.765 20.2821C105.437 21.0321 104.908 21.6571 104.203 22.1071C103.371 22.6821 102.665 23.0071 102.061 23.1071C101.481 23.2071 100.876 23.1071 100.322 22.8571C99.7171 22.5571 99.1879 22.1321 98.7847 21.5821L100.952 19.5821C101.128 19.8571 101.355 20.1071 101.607 20.3071C101.783 20.4321 101.985 20.5071 102.212 20.5071C102.388 20.5071 102.565 20.4321 102.691 20.3321C102.943 20.1821 103.119 19.8821 103.094 19.5821C103.018 19.1571 102.842 18.7321 102.565 18.4071L99.0367 13.4821ZM106.597 16.2571L108.89 14.4571C109.142 14.7571 109.469 14.9821 109.822 15.1071C110.326 15.2571 110.855 15.1571 111.284 14.8321C111.586 14.6321 111.838 14.3571 111.939 14.0071C112.09 13.5571 111.838 13.0571 111.385 12.9071C111.309 12.8821 111.233 12.8571 111.158 12.8571C110.855 12.8321 110.326 12.9571 109.545 13.2821C108.26 13.8071 107.252 14.0071 106.496 13.9321C105.765 13.8571 105.085 13.4821 104.681 12.8571C104.379 12.4321 104.228 11.9321 104.203 11.4321C104.203 10.8571 104.354 10.2821 104.681 9.8071C105.16 9.1321 105.74 8.5571 106.445 8.1071C107.504 7.3821 108.436 7.0321 109.243 7.0321C110.049 7.0321 110.805 7.4071 111.511 8.1821L109.243 9.9571C108.789 9.3821 107.932 9.2571 107.353 9.7071L107.277 9.7821C107.025 9.9321 106.849 10.1571 106.748 10.4321C106.672 10.6321 106.723 10.8571 106.849 11.0321C106.949 11.1571 107.101 11.2571 107.277 11.2571C107.479 11.2821 107.831 11.1821 108.335 10.9571C109.595 10.4321 110.553 10.1321 111.208 10.0321C111.763 9.9321 112.342 9.9821 112.871 10.2071C113.35 10.4071 113.753 10.7571 114.031 11.1821C114.383 11.6821 114.585 12.2821 114.61 12.9071C114.635 13.5571 114.459 14.1821 114.106 14.7321C113.653 15.4071 113.073 15.9821 112.393 16.4321C111.007 17.3821 109.873 17.7821 108.965 17.6321C107.983 17.4821 107.176 16.9821 106.597 16.2571Z" fill="#242730"/>
    </g>
    <defs>
    <clipPath id="clip0_84_100">
    <rect width="140" height="50" fill="white"/>
    </clipPath>
    </defs>
  </symbol>

  <symbol viewBox="0 0 40 40" fill="none" id="guest-user">
    <path d="M20 38.75C30.3553 38.75 38.75 30.3553 38.75 20C38.75 9.64466 30.3553 1.25 20 1.25C9.64466 1.25 1.25 9.64466 1.25 20C1.25 30.3553 9.64466 38.75 20 38.75Z" stroke="#242730" stroke-width="2" stroke-miterlimit="10" stroke-linejoin="round"/>
    <path d="M32.5 33.75C32.5 26.8463 26.9037 21.25 20 21.25C13.0963 21.25 7.5 26.8463 7.5 33.75" stroke="#242730" stroke-width="2" stroke-miterlimit="10" stroke-linejoin="round"/>
    <path d="M20 21.25C24.1421 21.25 27.5 17.8921 27.5 13.75C27.5 9.60786 24.1421 6.25 20 6.25C15.8579 6.25 12.5 9.60786 12.5 13.75C12.5 17.8921 15.8579 21.25 20 21.25Z" stroke="#242730" stroke-width="2" stroke-miterlimit="10" stroke-linejoin="round"/>
  </symbol>

  <symbol viewBox="0 0 12 22" fill="none" id="angle">
    <path d="M11 1L1 11L11 21" stroke="#242730" stroke-width="2" stroke-linecap="round" stroke-linejoin="round"/>
  </symbol>

</svg>
