<svg width="40" height="40" viewBox="0 0 40 40" fill="none" xmlns="http://www.w3.org/2000/svg">
<path fill-rule="evenodd" clip-rule="evenodd" d="M23.8022 0H28.8413V1.68295C41.4521 4.57034 42.8942 10.6251 35.5797 20.1694C36.3577 10.6999 35.4039 8.66868 28.8413 8.22922V32.1682C28.8544 32.2951 28.8576 32.4221 28.8576 32.5523C28.8576 35.6643 25.5926 38.7503 21.5659 39.4469C17.5392 40.1435 14.2742 38.1839 14.2742 35.0719C14.2742 30.827 20.1043 27.1421 23.799 28.441L23.8022 0ZM1.85223 24.0171C0.830084 24.0171 0 23.187 0 22.1649C0 21.1427 0.830084 20.3126 1.85223 20.3126H17.3569C18.379 20.3126 19.2091 21.1427 19.2091 22.1649C19.2091 23.187 18.379 24.0171 17.3569 24.0171H1.85223ZM1.85223 15.0196C0.830084 15.0196 0 14.1895 0 13.1642C0 12.142 0.830084 11.3119 1.85223 11.3119H17.3569C18.379 11.3119 19.2091 12.142 19.2091 13.1642C19.2091 14.1863 18.379 15.0164 17.3569 15.0164H1.85223V15.0196ZM1.85223 6.02218C0.830084 6.02218 0 5.19209 0 4.1667C0 3.14455 0.830084 2.31447 1.85223 2.31447H17.3569C18.379 2.31447 19.2091 3.14455 19.2091 4.1667C19.2091 5.18884 18.379 6.01892 17.3569 6.01892H1.85223V6.02218Z" fill="#959BA5"/>
</svg>
